<mxfile host="app.diagrams.net" modified="2021-06-25T10:44:40.061Z" agent="5.0 (Windows NT 10.0; Win64; x64) AppleWebKit/537.36 (KHTML, like Gecko) Chrome/91.0.4472.114 Safari/537.36" etag="kZWg3U1WT5ecy7JG-prA" version="14.8.1" type="github">
  <diagram id="DslNUmO4b-G7ix87V8Ez" name="Page-1">
    <mxGraphModel dx="1422" dy="772" grid="1" gridSize="10" guides="1" tooltips="1" connect="1" arrows="1" fold="1" page="1" pageScale="1" pageWidth="827" pageHeight="1169" math="0" shadow="0">
      <root>
        <mxCell id="0" />
        <mxCell id="1" parent="0" />
        <mxCell id="IPVRnNctq-TK2OlajnKQ-1" value="买保险" style="rounded=0;whiteSpace=wrap;html=1;fontSize=22;fontStyle=1;fillColor=#ffe6cc;strokeColor=#d79b00;" parent="1" vertex="1">
          <mxGeometry x="170" y="220" width="120" height="60" as="geometry" />
        </mxCell>
        <mxCell id="IPVRnNctq-TK2OlajnKQ-2" value="体检" style="rounded=0;whiteSpace=wrap;html=1;fontSize=22;fontStyle=1;fillColor=#dae8fc;strokeColor=#6c8ebf;" parent="1" vertex="1">
          <mxGeometry x="414" y="220" width="120" height="60" as="geometry" />
        </mxCell>
        <mxCell id="IPVRnNctq-TK2OlajnKQ-3" value="" style="shape=flexArrow;endArrow=classic;html=1;" parent="1" edge="1">
          <mxGeometry width="50" height="50" relative="1" as="geometry">
            <mxPoint x="320" y="249.5" as="sourcePoint" />
            <mxPoint x="390" y="249.5" as="targetPoint" />
          </mxGeometry>
        </mxCell>
        <mxCell id="IPVRnNctq-TK2OlajnKQ-4" value="" style="shape=image;html=1;verticalAlign=top;verticalLabelPosition=bottom;labelBackgroundColor=#ffffff;imageAspect=0;aspect=fixed;image=https://cdn4.iconfinder.com/data/icons/emoji-18/61/22-128.png;fontSize=22;" parent="1" vertex="1">
          <mxGeometry x="320" y="100" width="70" height="70" as="geometry" />
        </mxCell>
        <mxCell id="IPVRnNctq-TK2OlajnKQ-5" value="先" style="ellipse;whiteSpace=wrap;html=1;aspect=fixed;fontSize=20;fillColor=#fff2cc;strokeColor=#d6b656;" parent="1" vertex="1">
          <mxGeometry x="200" y="140" width="60" height="60" as="geometry" />
        </mxCell>
        <mxCell id="IPVRnNctq-TK2OlajnKQ-6" value="后" style="ellipse;whiteSpace=wrap;html=1;aspect=fixed;fontSize=20;fillColor=#fff2cc;strokeColor=#d6b656;" parent="1" vertex="1">
          <mxGeometry x="444" y="140" width="60" height="60" as="geometry" />
        </mxCell>
      </root>
    </mxGraphModel>
  </diagram>
</mxfile>
